<?xml version="1.0" encoding="UTF-8"?>
<svg width="720px" height="482px" viewBox="0 0 720 482" version="1.1" xmlns="http://www.w3.org/2000/svg" xmlns:xlink="http://www.w3.org/1999/xlink">
    <!-- Generator: Sketch 53.2 (72643) - https://sketchapp.com -->
    <title>Group 4</title>
    <desc>Created with Sketch.</desc>
    <defs>
        <path d="M0,88.6519716 C0,58.113422 51.1686643,50.6993926 91.8591129,42.2403077 C132.549561,33.7812228 139.796352,23.7069756 172.790906,7.81899436 C205.78546,-8.06898686 243,2.09097931 243,21.8510605 C243,26.7097973 243,42.3891854 243,68.8892245 C243,99.1218508 243,172.825443 243,290 L0,290 C0,155.767981 0,88.6519716 0,88.6519716 Z" id="path-1"></path>
        <linearGradient x1="50%" y1="0%" x2="50%" y2="72.740186%" id="linearGradient-3">
            <stop stop-color="#FFFFFF" stop-opacity="0" offset="0%"></stop>
            <stop stop-color="#FFFFFF" offset="100%"></stop>
        </linearGradient>
        <linearGradient x1="-2.43261719%" y1="0%" x2="84.3544922%" y2="0%" id="linearGradient-4">
            <stop stop-color="#FFFFFF" offset="0%"></stop>
            <stop stop-color="#417ECC" stop-opacity="0.3" offset="100%"></stop>
        </linearGradient>
    </defs>
    <g id="Page-1" stroke="none" stroke-width="1" fill="none" fill-rule="evenodd">
        <g id="M-home-v2" transform="translate(0.000000, -143.000000)">
            <g id="Group-4" transform="translate(-101.000000, 143.000000)">
                <g id="Group-13">
                    <path d="M325.48861,15 C284.169402,17.9795302 274.232011,34.4355541 262.929167,38.7784155 C251.626323,43.1212768 229.0887,43.5309622 196.059448,65.8313739 C163.030196,88.1317855 113.093212,80.2213288 85.459099,97.8887669 C85.459099,97.8887669 85.459099,97.8887669 85.459099,97.8887669 L85.459099,97.8887669 C75.5819081,104.203595 72.694042,117.329819 79.0088697,127.20701 C82.9095847,133.308223 89.6515333,136.99993 96.893106,136.99993 L465.858264,137.000001 C472.310605,137.000001 478.131521,133.124352 480.62022,127.171278 C492.355447,99.1001155 496.371065,77.8965102 492.667075,63.5604622 C486.480168,39.6144481 464.531509,22.5703591 417.367104,25.0490538 C370.202699,27.5277485 366.468885,15 325.48861,15 Z" id="Path-30" fill-opacity="0.05" fill="#1982FF"></path>
                    <path d="M942.48861,86 C901.169402,88.9795302 891.232011,105.435554 879.929167,109.778415 C868.626323,114.121277 846.0887,114.530962 813.059448,136.831374 C780.030196,159.131786 730.093212,151.221329 702.459099,168.888767 C702.459099,168.888767 702.459099,168.888767 702.459099,168.888767 L702.459099,168.888767 C692.581908,175.203595 689.694042,188.329819 696.00887,198.20701 C699.909585,204.308223 706.651533,207.99993 713.893106,207.99993 L1082.85826,208.000001 C1089.31061,208.000001 1095.13152,204.124352 1097.62022,198.171278 C1109.35545,170.100116 1113.37107,148.89651 1109.66708,134.560462 C1103.48017,110.614448 1081.53151,93.5703591 1034.3671,96.0490538 C987.202699,98.5277485 983.468885,86 942.48861,86 Z" id="Path-30" fill-opacity="0.05" fill="#1982FF"></path>
                    <g id="building-rounded" transform="translate(389.000000, 142.000000)">
                        <mask id="mask-2" fill="white">
                            <use xlink:href="#path-1"></use>
                        </mask>
                        <use id="Mask" fill="#E0EEFF" xlink:href="#path-1"></use>
                        <path d="M247,59.0979219 C239.073326,34.4930286 202.135794,25.3250866 173.514876,40.1364553 C143.218853,55.8146933 135.425711,68.0166447 92.5906385,76.07452 C68.5235979,80.6018664 43.9838198,86.2917348 23,100.248888 C23,100.248888 23,117 23,117 C43.9838198,103.042846 68.5235979,97.3529779 92.5906385,92.8256315 C135.425711,84.7677562 143.218853,72.5658048 173.514876,56.8875668 C202.135794,42.0761981 239.073326,51.2441401 247,75.8490334 L247,59.0979219 Z" id="Path" fill-opacity="0.2" fill="#1982FF" mask="url(#mask-2)"></path>
                        <path d="M247,84.0979219 C239.073326,59.4930286 202.135794,50.3250866 173.514876,65.1364553 C143.218853,80.8146933 135.425711,93.0166447 92.5906385,101.07452 C68.5235979,105.601866 43.9838198,111.291735 23,125.248888 C23,125.248888 23,142 23,142 C43.9838198,128.042846 68.5235979,122.352978 92.5906385,117.825632 C135.425711,109.767756 143.218853,97.5658048 173.514876,81.8875668 C202.135794,67.0761981 239.073326,76.2441401 247,100.849033 L247,84.0979219 Z" id="Path" fill-opacity="0.2" fill="#1982FF" mask="url(#mask-2)"></path>
                        <path d="M247,110.097922 C239.073326,85.4930286 202.135794,76.3250866 173.514876,91.1364553 C143.218853,106.814693 135.425711,119.016645 92.5906385,127.07452 C68.5235979,131.601866 43.9838198,137.291735 23,151.248888 C23,151.248888 23,168 23,168 C43.9838198,154.042846 68.5235979,148.352978 92.5906385,143.825632 C135.425711,135.767756 143.218853,123.565805 173.514876,107.887567 C202.135794,93.0761981 239.073326,102.24414 247,126.849033 L247,110.097922 Z" id="Path" fill-opacity="0.2" fill="#1982FF" mask="url(#mask-2)"></path>
                        <path d="M247,136.097922 C239.073326,111.493029 202.135794,102.325087 173.514876,117.136455 C143.218853,132.814693 135.425711,145.016645 92.5906385,153.07452 C68.5235979,157.601866 43.9838198,163.291735 23,177.248888 C23,177.248888 23,194 23,194 C43.9838198,180.042846 68.5235979,174.352978 92.5906385,169.825632 C135.425711,161.767756 143.218853,149.565805 173.514876,133.887567 C202.135794,119.076198 239.073326,128.24414 247,152.849033 L247,136.097922 Z" id="Path" fill-opacity="0.2" fill="#1982FF" mask="url(#mask-2)"></path>
                    </g>
                    <g id="plane" transform="translate(0.000000, 56.000000)">
                        <path d="M292.026542,12.6259778 L282,8.85656172 L284.352814,7 L301.819788,8.69298059 C309.629054,5.65186843 317.433255,2.83304906 325.41754,0.107189339 L334.699427,0 C336.607985,0.214198022 337.43778,1.42706346 336.773944,3.05610055 C336.193057,4.92288117 326.116763,10.0598399 314.108279,14.1146681 L300.167606,30.9879563 L295.911871,31 L301.044873,18.3361817 L269.51147,26.6599157 L261,15.2445521 L264.022888,13.7106305 L275.404933,19.8818159 C281.027672,17.2990855 286.547186,14.8951578 292.026542,12.6259778 Z" id="Combined-Shape" fill-opacity="0.6" fill="#0074FF" fill-rule="nonzero"></path>
                        <polygon id="Path-18" fill-opacity="0.2" fill="#1982FF" points="264.766357 28.4333496 0 113.438069 0 126.328983"></polygon>
                    </g>
                    <g id="building1" transform="translate(337.000000, 97.000000)">
                        <path d="M60,25 L60,2 C60,0.8954305 60.8954305,2.02906125e-16 62,0 L118,0 C119.104569,-2.02906125e-16 120,0.8954305 120,2 L120,27 L120,244 C120,245.104569 119.104569,246 118,246 L2,246 C0.8954305,246 1.3527075e-16,245.104569 0,244 L0,27 C-1.3527075e-16,25.8954305 0.8954305,25 2,25 L60,25 Z" id="Combined-Shape" fill="#E0EEFF"></path>
                        <g id="Stacked-Group" transform="translate(22.000000, 53.000000)" fill="#A9CBF9">
                            <rect id="Rectangle" x="0" y="0" width="8" height="247"></rect>
                            <rect id="Rectangle" x="18" y="0" width="8" height="247"></rect>
                            <rect id="Rectangle" x="36" y="0" width="8" height="247"></rect>
                            <rect id="Rectangle" x="54" y="0" width="8" height="247"></rect>
                            <rect id="Rectangle" x="72" y="0" width="8" height="247"></rect>
                        </g>
                    </g>
                    <g id="building1" transform="translate(35.000000, 76.000000)">
                        <rect id="Rectangle" fill="#E0EEFF" x="0" y="0" width="160" height="312" rx="2"></rect>
                        <g id="Stacked-Group" transform="translate(22.000000, 19.000000)" fill="#A9CBF9">
                            <rect id="Rectangle" x="54" y="0" width="8" height="20"></rect>
                            <rect id="Rectangle" x="108" y="0" width="8" height="20"></rect>
                            <rect id="Rectangle" x="90" y="0" width="8" height="20"></rect>
                            <rect id="Rectangle" x="72" y="0" width="8" height="20"></rect>
                        </g>
                        <g id="Stacked-Group" transform="translate(22.000000, 54.000000)" fill="#A9CBF9">
                            <rect id="Rectangle" x="54" y="0" width="8" height="20"></rect>
                            <rect id="Rectangle" x="108" y="0" width="8" height="20"></rect>
                            <rect id="Rectangle" x="90" y="0" width="8" height="20"></rect>
                            <rect id="Rectangle" x="72" y="0" width="8" height="20"></rect>
                        </g>
                        <g id="Stacked-Group" transform="translate(22.000000, 90.000000)" fill="#A9CBF9">
                            <rect id="Rectangle" x="54" y="0" width="8" height="20"></rect>
                            <rect id="Rectangle" x="108" y="0" width="8" height="20"></rect>
                            <rect id="Rectangle" x="90" y="0" width="8" height="20"></rect>
                            <rect id="Rectangle" x="72" y="0" width="8" height="20"></rect>
                        </g>
                    </g>
                    <g id="building1" transform="translate(765.000000, 196.000000)">
                        <rect id="Rectangle" fill="#E0EEFF" x="0" y="0" width="160" height="230" rx="2"></rect>
                        <g id="Stacked-Group" transform="translate(22.000000, 19.000000)" fill="#A9CBF9">
                            <rect id="Rectangle" x="0" y="0" width="8" height="20"></rect>
                            <rect id="Rectangle" x="18" y="0" width="8" height="20"></rect>
                        </g>
                        <g id="Stacked-Group" transform="translate(22.000000, 54.000000)" fill="#A9CBF9">
                            <rect id="Rectangle" x="0" y="0" width="8" height="20"></rect>
                            <rect id="Rectangle" x="18" y="0" width="8" height="20"></rect>
                        </g>
                    </g>
                    <rect id="Rectangle" fill="url(#linearGradient-3)" x="101" y="0" width="720" height="441"></rect>
                    <rect id="Rectangle" fill="url(#linearGradient-4)" x="461" y="385" width="400" height="2"></rect>
                    <path d="M526.507222,385.698274 C509.099458,385.698274 504.619347,368.594674 517.114234,360.440263 C529.609121,352.285851 537.77863,357.096081 546.475928,342.868241 C558.286627,323.547214 574.142928,328.038023 583.105508,317.90082 C601.410431,297.196881 625.355968,300.698274 665.821895,312.497579 C687.278598,318.754056 688,311.304003 703.891467,313.250382 C719.782935,315.19676 713.818344,341.648259 737.802122,347.475464 C761.7859,353.302669 768.977651,343.984684 797,354.146733 C825.022349,364.308781 828.658549,384.631783 819,384.631783 C819,384.631783 526.507222,384.631783 526.507222,385.698274 Z" id="Path-17" fill-opacity="0.7" fill="#E0EEFF"></path>
                    <path d="M646.507222,386 C629.099458,386 624.619347,363.043057 637.114234,352.097971 C649.609121,341.152886 657.77863,347.609314 666.475928,328.512299 C678.286627,302.579061 694.142928,308.606754 703.105508,295.000309 C721.410431,267.210887 745.355968,271.910558 785.821895,287.747923 C807.278598,296.145547 808,286.145872 823.891467,288.758357 C839.782935,291.370842 833.818344,326.874803 857.802122,334.696246 C881.7859,342.517688 888.977651,330.010821 917,343.650614 C945.022349,357.290407 948.658549,384.568525 939,384.568525 C939,384.568525 646.507222,384.568525 646.507222,386 Z" id="Path-17" fill-opacity="0.7" fill="#E0EEFF"></path>
                </g>
                <g id="dude" transform="translate(539.000000, 51.000000)">
                    <ellipse id="schaduw" fill-opacity="0.06" fill="#1982FF" cx="121" cy="409" rx="121" ry="22"></ellipse>
                    <g id="guy" transform="translate(130.000000, 207.500000) scale(-1, 1) translate(-130.000000, -207.500000) translate(41.000000, 0.000000)">
                        <g id="Group">
                            <g id="phone" transform="translate(0.003228, 140.070893)">
                                <path d="M0.70745057,-1.42108547e-14 L6.80587632,-1.50990331e-14 C7.75399395,-1.52731995e-14 8.69315592,0.183444726 9.57158518,0.540220667 L27.3242585,7.75050723 L22.033794,9.3471181 L9.33487589,4.60588985 L0.70745057,-1.42108547e-14 Z" id="Path-89" fill="#395675"></path>
                                <path d="M19.5545977,10.0127446 C7.82531361,4.79519109 1.53581664,2.00609138 0.686106764,1.64544547 C-0.588458048,1.10447662 0.0792635366,-0.391836323 1.33183776,0.0965254764 C2.16688724,0.422100009 8.77425063,3.2943329 21.1539279,8.71322415 L19.5545977,10.0127446 Z" id="Path-104" fill="#072C52"></path>
                            </g>
                            <g id="cup" transform="translate(20.715801, 119.419415)">
                                <polygon id="Path-106" fill="#0074FF" points="20.1617546 24.4800334 20.7664597 5.2632903 0.578280024 5.2632903 1.54648425 28.6498892"></polygon>
                                <g id="Group-9" transform="translate(0.000000, -0.000000)">
                                    <polygon id="Path-106" fill="#0165DC" points="20.2127612 24.4525655 20.4863841 13.0456551 0.960061603 13.0456551 1.50262162 28.5278268"></polygon>
                                    <rect id="Rectangle" fill="#0165DC" x="1.15463195e-13" y="4.28771704" width="21.3957464" height="2.52828096" rx="0.63935998"></rect>
                                    <path d="M1.62191207,4.28771704 L1.62182137,2.66246228 C1.62182198,2.48585473 1.76499117,2.34268651 1.94159872,2.34268712 C1.94429279,2.34268713 1.94698676,2.34272118 1.94967997,2.34278927 C8.22843273,2.50153537 12.1899795,2.49874232 13.8343202,2.33441013 C16.3434779,2.08364984 17.5152477,1.32365328 18.672115,0.499616392 C19.8289824,-0.324420494 20.2622315,0.0122927058 20.2622315,0.499616392 C20.2622315,0.82449885 20.2622315,2.08719907 20.2622315,4.28771704 L1.62191207,4.28771704 Z" id="Path-107" fill="#0074FF"></path>
                                </g>
                            </g>
                            <path d="M56.2106982,143.403935 C54.8419562,143.403935 52.2507962,142.042324 51.4135525,141.063132 C50.5763089,140.083939 48.4484143,136.645121 47.2890888,136.390644 C46.1297633,136.136166 43.1753987,136.007454 41.8722138,136.281361 C40.5690289,136.555269 39.8659273,136.18772 39.0998035,136.390644 C38.5077052,136.547473 38.443307,138.687371 39.9399097,140.1659 C40.9168747,141.131067 42.5158375,141.2982 44.7367983,140.667299 L46.0656146,146.886663 L55.2423404,147.218859 C56.8004069,144.675576 57.1231929,143.403935 56.2106982,143.403935 Z" id="Path-105" fill="#D7A699"></path>
                            <path d="M51.6776117,159.718575 C49.8938391,159.718575 46.2964375,157.648523 43.437275,158.694772 C40.5781125,159.741021 33.6821475,159.718575 31.5240446,159.718575 C29.3659416,159.718575 27.3274868,158.694772 25.8469637,157.770688 C24.3664406,156.846604 24.4928941,155.0187 23.2617446,155.0187 C22.030595,155.0187 17.0832524,153.752865 16.2950181,151.802055 C15.8437938,151.802055 13.3015727,151.939395 12.2751219,150.676545 C11.248671,149.413695 11.2438123,147.645186 11.9121989,147.024563 C12.5805855,146.40394 15.6630294,147.455951 18.493259,145.888349 C21.3234887,144.320748 25.8164292,143.649996 27.6959673,143.226334 C29.5755054,142.802672 29.2051184,140.858035 30.3579656,139.923733 C31.5108128,138.989432 33.475554,138.989432 35.4770523,139.923733 C37.4785505,140.858035 39.7159416,141.1062 42.715654,143.226334 C45.7153664,145.346468 49.5524753,146.312053 51.5421437,146.312053 C53.5318121,146.312053 53.4613844,159.718575 51.6776117,159.718575 Z" id="Path-102" fill="#E8BAAE"></path>
                            <path d="M48.5293909,145.888349 C46.7049958,145.407061 44.6007275,144.550073 42.7986696,143.276416 C42.0414614,142.741237 41.3328278,142.325338 40.6643014,141.987575 L40.6643014,140.668228 C42.1844902,141.278944 43.5097703,140.851804 44.6314937,140.668228 C45.7532171,140.484652 45.7686756,141.528831 46.5995819,143.058297 C47.1194292,144.01519 48.2400609,145.148792 48.5293909,145.888349 L48.5293909,145.888349 Z" id="Path" fill="#C29183"></path>
                            <path d="M20.9008441,150.852591 C19.6515743,151.113857 18.1162989,151.430345 16.2950181,151.802055 C18.7100448,152.05008 20.2453201,152.112086 20.9008441,151.988074 C21.8841302,151.802055 22.774749,150.460692 20.9008441,150.852591 Z" id="Path-103" fill="#C29183"></path>
                            <path d="M21.2602473,133.792422 C19.929389,133.984894 19.7510962,134.755504 19.7510962,135.683036 C19.7510962,136.610567 20.4135679,137.580411 21.6102138,137.580411 C22.8068596,137.580411 22.5911056,133.599951 21.2602473,133.792422 Z" id="Path-108" fill="#E8BAAE"></path>
                            <path d="M21.0691939,138.466771 C20.5391039,138.875337 18.917655,139.705212 18.917655,140.650876 C18.917655,141.59654 20.8090934,143.378447 21.2602473,143.378447 C21.5610166,143.378447 21.8283336,143.335707 22.0621982,143.250227 C21.9988337,142.725908 22.1097222,142.348437 22.3948639,142.117814 C22.8225764,141.77188 23.6348084,140.483375 23.1673884,139.407245 C22.6999684,138.331115 21.5992839,138.058206 21.0691939,138.466771 Z" id="Path-109" fill="#E8BAAE"></path>
                            <path d="M111.262885,181.557937 C114.084304,181.157843 116.392493,181.622188 120.217801,182.294717 C124.043109,182.967245 132.562251,185.765099 136.002203,186.75355 C139.442155,187.742002 142.202735,186.285838 145.190336,189.127461 C148.177937,191.969084 149.818625,203.282266 149.818625,212.161214 C149.818625,221.040162 152.580614,228.100169 152.580614,229.089743 C152.580614,230.079317 152.427671,231.844108 151.320453,232.205483 C151.320453,232.205483 151.320453,234.576027 151.320453,237.054591 C151.320453,239.533155 150.088177,241.431778 147.699673,242.191003 C145.31117,242.950228 145.994766,245.681026 142.477639,247.043478 C138.960511,248.405931 126.940818,247.919982 121.86384,248.405931 C116.786862,248.89188 103.826133,248.687624 102.459785,247.817293 C101.548887,247.237072 103.770364,231.203003 109.124217,199.715087 C108.669049,187.87705 109.381938,181.824667 111.262885,181.557937 Z" id="Path-83" fill="#072C52"></path>
                            <path d="M138.768492,188.262461 C140.381601,188.353917 143.712312,187.555692 145.316053,189.081072 C148.303654,191.922695 149.944342,203.235876 149.944342,212.114825 C149.944342,220.993773 152.706331,228.05378 152.706331,229.043354 C152.706331,230.032928 152.553388,231.797719 151.44617,232.159094 C151.44617,232.159094 151.44617,234.529638 151.44617,237.008202 C151.44617,239.486766 150.213894,241.385389 147.82539,242.144614 C145.436887,242.903839 146.120483,245.634636 142.603356,246.997089 C139.086228,248.359542 127.066535,247.873593 121.989557,248.359542 C116.912579,248.84549 103.95185,248.641235 102.585502,247.770904 C101.686919,247.198527 127.239612,233.866579 138.768492,216.112397 C144.769935,206.870328 138.291965,188.235444 138.768492,188.262461 Z" id="Path-83" fill="#07223D"></path>
                            <path d="M113.510557,193.050404 C119.344551,194.341592 122.261549,194.987185 122.261549,194.987185 C122.261549,194.987185 124.436551,195.398222 123.636056,197.674915 C123.636056,197.674915 123.065686,199.530705 121.924947,203.242284 L114.122611,206.03158 L108.275706,197.47094 L113.510557,193.050404 Z" id="Path-93" fill="#6A8097"></path>
                            <path d="M134.657825,199.225856 C133.71538,196.458865 134.657825,194.939488 132.635202,194.939488 C130.612579,194.939488 130.050661,193.40482 130.659335,192.191296 C131.268009,190.977772 133.477938,191.718576 136.596045,188.358136 C138.674783,186.117842 139.944083,188.311626 140.403946,194.939488 L141.341128,202.361432 L147.110152,236.965931 L144.888352,244.715581 L142.872464,237.351155 L138.207625,222.381585 L135.56647,207.883629 C135.589003,203.956441 135.286122,201.070516 134.657825,199.225856 Z" id="Path-95" fill="#07223D"></path>
                            <path d="M142.477639,247.043478 C138.960511,248.405931 126.940818,247.919982 121.86384,248.405931 C116.786862,248.89188 103.826133,248.687624 102.459785,247.817293 C101.548887,247.237072 109.124217,201.91336 109.124217,199.715087 C109.124217,197.516813 112.920191,200.924908 116.211988,201.413944 C119.503785,201.902979 128.434196,201.902979 134.680076,199.715087 C135.423104,199.058831 138.125098,220.080182 139.103878,223.827561 C139.756397,226.325814 141.51529,231.526969 144.380555,239.431027 C145.456696,243.597693 144.82239,246.135176 142.477639,247.043478 Z" id="Path" fill="#07223D"></path>
                            <path d="M61.8448059,121.920337 C60.6339361,124.39357 55.6056858,139.880442 55.0671459,147.558911 C54.7081193,152.67789 57.2081613,154.356639 62.5672719,152.595159 L67.7909964,138.744213 C64.634116,125.879474 62.6520525,120.271515 61.8448059,121.920337 Z" id="Path-100" fill="#072C52"></path>
                            <path d="M51.5249503,161.632911 C50.117949,167.392845 49.4144484,171.520605 49.4144484,174.01619 C49.4144484,176.527901 49.8973461,179.546865 49.4144484,184.211297 C49.17765,186.498593 50.8844483,192.07683 50.8844483,192.557496 C50.8844483,194.018374 53.4988456,186.468771 53.065366,183.285974 C52.6318864,180.103177 52.6318864,169.119666 54.8043542,165.376288 C56.252666,162.880703 55.1595314,161.632911 51.5249503,161.632911 Z" id="Path-101" fill="#072C52"></path>
                            <path d="M69.4046445,79.3470619 C67.5715808,80.8209011 66.0232786,83.0357282 65.4084079,85.1846211 C64.7935373,87.333514 65.3661585,97.442766 66.3863424,101.919276 C67.0664649,104.903615 70.3235236,102.123905 76.1575182,93.5801457 C72.8776449,83.1088637 70.626687,78.3645024 69.4046445,79.3470619 Z" id="Path-88" fill="#07223D"></path>
                            <path d="M54.8043542,165.376288 C54.8043542,168.459202 56.2768891,172.248874 54.8043542,175.383974 C53.3318193,178.519073 53.3318193,182.037674 61.1079752,187.546444 C66.2920791,191.218957 79.2072728,192.872829 99.8535562,192.50806 C106.434803,188.679763 110.693127,186.132834 112.628529,184.867272 C113.760826,184.126861 114.771316,182.259538 116.19368,180.998198 C118.418119,179.025585 119.668276,175.945317 119.668276,174.470435 C119.668276,172.052474 118.051248,160.960382 118.584155,153.498878 C119.117061,146.037374 122.896699,117.268751 121.687801,111.353754 C120.881869,107.410423 118.34906,96.2305124 114.089374,77.8140222 C105.134177,68.6458987 98.5559341,62.9096256 94.3546468,60.6052028 C91.1051931,59.0643072 83.806644,65.6391133 72.4589996,80.3296213 C72.4589996,81.7485622 72.4589996,83.7495942 72.4589996,86.3327174 C72.4589996,90.2074023 68.9351121,93.7038775 68.1582851,97.1588282 C67.3814582,100.613779 62.5672719,110.410194 62.0408435,116.621755 C61.5144151,122.833315 62.0408435,124.738953 62.0408435,130.346444 C62.0408435,135.953935 57.6163791,141.73033 58.5075612,152.201799 C59.3987434,162.673268 54.8043542,162.293375 54.8043542,165.376288 Z" id="Path-82" fill="#F2086D"></path>
                            <path d="M144.883605,372.026334 C144.883605,376.106958 149.118129,381.731283 150.079163,383.684057 C151.040198,385.636831 154.099623,388.446468 152.965084,393.34692 C151.830545,398.247373 144.883605,408.11842 152.965084,412.402738 C154.912315,413.344334 159.287107,409.048793 166.089459,399.516114 L170.658599,388.645112 L170.658599,369.156654 L174.102212,350.930765 C169.711647,347.047663 164.841879,345.888718 159.492909,347.45393 C151.469453,349.801748 144.883605,367.94571 144.883605,372.026334 Z" id="Path-114" fill="#011326"></path>
                            <path d="M157.416488,355.104539 C158.854848,360.001811 158.533752,363.482948 156.4532,365.54795 C153.332373,368.645454 147.001712,372.026334 144.883605,372.026334 C143.471534,372.026334 141.721655,369.866873 139.633968,365.54795 L145.84802,355.104539 L157.416488,355.104539 Z" id="Path-115" fill="#00070E"></path>
                            <path d="M52.5572457,385.202507 C48.3242769,387.463348 45.5224272,393.320858 40.3336289,395.429068 C35.1448306,397.537278 22.7533426,395.397333 20.9078857,397.650318 C19.0624289,399.903302 20.0003671,404.339129 20.9078857,404.339129 C21.5128981,404.339129 25.8499471,405.452622 33.9190326,407.679607 L61.6594716,405.521455 L83.1599454,405.521455 C83.6513537,397.452048 82.1081214,390.870227 78.5302485,385.775994 C73.1634391,378.134644 56.7902145,382.941666 52.5572457,385.202507 Z" id="Path-117" fill="#011326"></path>
                            <path d="M19.8471062,402.235408 C19.3271922,402.235408 19.0838353,403.810814 19.3271922,405.387342 C19.5705492,406.96387 24.8584929,409.464599 32.5923993,410.043698 C40.3263057,410.622796 50.9627507,410.169113 55.3183894,408.623728 C59.6740282,407.078343 62.3334915,406.404913 63.0737022,406.404913 C63.8139129,406.404913 63.4636648,408.646034 63.6602657,409.418586 C67.9931231,410.235822 82.0379893,410.162379 83.5702367,409.181784 C84.3766383,408.21662 84.0366709,402.235408 83.5702367,402.235408 C83.1038026,402.235408 82.9267284,402.235408 80.8680525,402.235408 C78.8093766,402.235408 65.5269881,401.232086 60.1965133,403.11612 C54.8660384,405.000154 44.1741058,407.707796 33.062495,406.353975 C21.9508843,405.000154 20.540597,403.11612 19.8471062,402.235408 Z" id="Path-118" fill="#000000"></path>
                            <path d="M152.965084,412.402738 C152.965084,412.529707 154.957146,414.104962 155.939165,414.389461 C156.921183,414.67396 161.964503,410.15789 163.970226,407.182435 C165.975949,404.20698 171.298537,394.425716 172.459271,388.253996 C173.710982,381.505704 171.526544,367.628665 171.836514,367.377554 C172.146484,367.126443 175.430817,367.683095 176.079206,367.683095 C177.696349,364.006248 177.568993,357.529113 177.728343,354.414474 C177.887694,351.299835 178.221958,348.437892 177.547797,348.227183 C176.303832,347.975932 172.125782,347.520425 171.230938,347.520425 C170.336094,347.520425 169.052274,347.469922 169.444631,348.227183 C169.836987,348.984444 169.623487,354.621115 168.964113,362.661437 C168.30474,370.701758 170.28286,381.727636 168.964113,388.253996 C167.645366,394.780357 163.08524,405.632281 152.965084,412.402738 Z" id="Path-116" fill="#000000"></path>
                            <path d="M85.6442476,169.899917 C90.1964636,168.967663 98.9806215,167.154506 102.098411,167.893757 C105.216201,168.633008 106.975127,163.975398 108.451605,161.589422 C109.928083,159.203447 113.222979,155.19044 112.482486,153.69612 C111.741994,152.201799 111.312176,150.107056 111.312176,148.209555 C111.312176,146.312053 114.54088,123.580756 111.966198,111.509191 C109.391515,99.4376254 105.513577,100.153643 105.513577,96.1510173 C105.513577,92.1483921 111.419184,95.7688797 112.482486,97.9629445 C113.545788,100.157009 116.044357,111.036831 116.044357,116.338097 C116.044357,121.639364 117.773329,146.653368 117.773329,152.166065 C117.773329,155.280035 120.164096,166.119495 120.164096,172.429142 C120.164096,174.041573 116.214148,182.825029 113.545788,182.825029 C110.215134,182.825029 100.922083,173.882077 95.2263942,173.882077 C81.2295033,173.882077 77.0673295,172.660833 73.444297,170.370171 C70.841796,168.724739 81.0920316,170.83217 85.6442476,169.899917 Z" id="Path-81" fill="#D90763"></path>
                            <path d="M76.756334,103.936861 C76.1958244,106.807102 76.6969031,110.17704 77.8700301,112.278516 C79.043157,114.379993 79.4304439,119.476845 80.0317946,121.704017 C80.6331454,123.931189 78.9873877,128.26601 80.483864,130.710344 C81.9803402,133.154678 83.1050211,134.420334 83.1050211,136.563896 C83.1050211,138.707458 82.6816814,141.713495 83.5931433,142.282774 C84.5046053,142.852052 84.7818747,145.122713 83.1050211,145.122713 C81.4281676,145.122713 62.5672719,148.27968 62.5672719,147.558911 C62.5672719,146.838141 79.2783028,146.838141 79.2783028,140.647321 C79.2783028,134.4565 76.1575182,133.72564 76.1575182,126.775337 C76.1575182,119.825033 73.1913205,115.787997 73.444297,110.592004 C73.6972735,105.396011 77.3168437,101.06662 76.756334,103.936861 Z" id="Path-86" fill="#D90763"></path>
                            <path d="M51.5421437,146.312053 C50.0319411,147.958178 47.891846,159.249684 53.8397118,166.22668 C54.4516962,167.013149 57.2561679,166.284817 59.3699188,166.474425 C61.4836696,166.664033 64.0406836,168.298353 66.9749523,168.633008 C67.6724162,168.633008 65.7120408,166.010659 64.5634185,163.763286 C63.4147963,161.515913 61.9309949,158.462459 61.9309949,156.145223 C61.9309949,153.827988 63.6798413,146.340671 64.5634185,145.133655 C60.7784293,145.133655 54.0467503,146.736838 51.5421437,146.312053 Z" id="Path-81" fill="#D90763"></path>
                            <path d="M139.019636,243.920632 C135.502508,245.139547 123.482816,244.704794 118.405838,245.139547 C113.32886,245.5743 100.36813,245.391563 99.0017826,244.612923 C98.090884,244.09383 103.466731,203.602717 103.466731,201.636037 C103.466731,199.669357 110.447188,203.984256 113.738985,204.42177 C117.030783,204.859284 124.636251,204.523681 130.966911,203.532685 C131.709939,202.945567 134.667096,219.797982 135.645875,223.150566 C136.298395,225.385622 138.057287,230.038823 140.922552,237.11017 C141.998693,240.837868 141.364388,243.108022 139.019636,243.920632 Z" id="Path" fill="#07223D"></path>
                            <path d="M109.334903,199.687186 L107.308364,195.13196 L110.342406,185.935335 C111.723168,185.285767 112.625243,184.831803 113.048629,184.573444 C113.762504,183.783075 115.458398,181.674234 115.642902,181.56404 C119.418878,182.060194 121.717175,182.537235 123.97744,183.187984 C121.103059,184.160006 119.04228,186.340769 121.924947,199.956707 C122.776837,203.911774 125.396906,212.960214 123.636056,218.375613 C121.20139,225.863294 116.028416,243.013243 119.288172,248.59251 C118.816104,248.617209 114.677533,248.768991 110.044551,248.59251 C104.942694,248.398169 99.5353601,247.903263 99.0984877,247.617105 C98.1875892,247.020454 103.783068,200.587328 103.783068,198.326804 C103.783068,196.917882 106.494754,198.313746 109.334903,199.687186 Z" id="Path" fill-opacity="0.5" fill="#011326"></path>
                            <path d="M142.805776,246.067933 C143.721877,240.545361 144.031505,236.505327 143.73466,233.947829 C143.289392,230.111582 138.313812,206.45917 137.485441,202.269966 C136.65707,198.080761 135.070461,188.054277 134.437001,185.314221 C133.803541,182.574165 127.209432,144.544737 126.738303,142.530237 C126.267173,140.515738 119.594199,101.407514 119.115653,100.053759 C118.637107,98.7000044 116.295078,87.1561932 114.447087,84.5488473 C112.599095,81.9415015 111.442304,80.7659092 109.444186,78.1944764 C107.446068,75.6230436 104.528038,72.480649 100.867262,70.9927812 C97.206486,69.5049134 90.6165721,68.180338 86.876649,69.9768338 C83.1367259,71.7733296 79.4766366,76.5508918 76.731266,78.1944764 C74.901019,79.2901995 73.8900361,78.4330552 73.6983174,75.6230436 C80.6513479,70.9971768 84.6920872,68.2047477 85.8205354,67.2457561 C87.5132077,65.8072689 98.4261891,64.915895 103.626997,67.2457561 C108.827805,69.5756173 115.556558,77.4504022 116.573643,80.5204096 C117.590729,83.5904169 124.014057,111.943234 125.305201,116.81619 C126.596344,121.689146 139.782404,185.327969 140.546556,187.045905 C141.310708,188.763841 142.432854,191.316476 142.805776,195.628571 C143.178698,199.940666 145.664094,207.05342 147.206481,217.859329 C148.748868,228.665239 149.195586,229.418853 149.720606,231.609551 C150.245626,233.800249 150.980767,237.125856 149.720606,239.653239 C148.460445,242.180622 148.478753,241.237623 146.545981,242.191003 C145.794403,242.561735 144.966533,243.89798 144.243385,244.715581 C143.898967,245.104985 143.419764,245.555769 142.805776,246.067933 Z" id="Path-84" fill="#072C52"></path>
                            <g id="head" transform="translate(58.713146, 38.728296) rotate(4.000000) translate(-58.713146, -38.728296) translate(25.713146, 2.228296)">
                                <path d="M65.6532953,52.856261 C62.8816746,49.4125305 60.8047069,44.8263215 59.4223922,39.097634 C57.3489201,30.5046028 55.7137982,26.8667024 55.7137982,23.2191611 C55.7137982,20.7874669 49.6813569,17.0302742 37.6164745,11.9475831 L16.7089981,20.4822343 C9.70830209,22.3891357 6.20795408,25.1427415 6.20795408,28.7430518 C6.20795408,34.1435174 8.80922498,40.5250883 10.2320406,44.6697435 C11.6548562,48.8143987 14.3395407,54.3800002 16.9148284,56.8809224 C19.4901161,59.3818446 29.4055808,69.1139725 34.7347931,68.7491957 C38.2776736,68.5066908 40.0631106,66.2668512 42.2259071,63.4531743 C42.2259071,63.4531743 44.555727,66.3375282 49.2153667,72.1062358 L65.6532953,52.856261 Z" id="Path-119" fill="#E8BAAE"></path>
                                <path d="M42.4349477,63.3561827 C45.5201211,57.4123429 50.4206167,50.3343038 48.2956027,43.0858301 C46.0554752,35.4447012 54.1416059,58.7981535 56.4048739,62.3557912 C57.9137192,64.7275497 55.5513473,68.2708777 49.3177582,72.9857753 C47.3041215,69.661113 45.0098514,66.4512488 42.4349477,63.3561827 Z" id="Path-119" fill-opacity="0.5" fill="#C29183"></path>
                                <path d="M60.6153592,42.8080121 C54.2805128,43.6808684 48.3859275,40.6267205 42.9316031,33.6455684 C43.1079947,30.3768416 42.3286532,28.0522636 40.5935785,26.6718345 C37.9909665,24.6011908 33.9634474,27.0777229 33.4084282,30.3029135 C32.853409,33.528104 31.7396605,37.0848044 30.0319376,37.0848044 C28.3242147,37.0848044 21.9659799,32.2875323 20.8114212,30.3029135 C19.6568625,28.3182946 17.8693741,22.8827922 15.952035,24.0523262 C14.0346959,25.2218601 9.14711353,31.9432847 6.87843538,31.9432847 C4.60975722,31.9432847 -0.490780349,24.7978532 0.365121613,22.0710373 C1.22102358,19.3442213 6.04929428,12.2123427 9.82312816,9.77115802 C13.596962,7.32997328 23.7464102,1.27920804 33.0148748,0.636092067 C42.2833393,-0.00702390833 52.1777109,6.65634459 54.4838603,9.65214222 C56.7900096,12.6479399 57.0534671,18.9013275 57.4695528,24.833154 C57.7469433,28.787705 58.7955454,34.7793244 60.6153592,42.8080121 Z" id="Path-120" fill="#072C52"></path>
                            </g>
                            <path d="M90.6051471,53.6220724 C87.7203533,54.1980846 82.740549,57.1822372 80.1867094,59.6481753 C77.6328697,62.1141134 69.2305767,70.8623157 68.863288,75.4493702 C68.4959992,80.0364247 70.6562212,83.3031123 68.863288,88.5211708 C68.4391876,89.7554503 74.630101,85.3831704 78.3216945,79.2206296 C81.4239581,74.0418835 84.0457882,67.123849 86.7103093,65.2806372 C92.5455245,61.2440629 95.2263942,61.5580051 95.2263942,60.4190357 C95.2263942,59.2800662 92.3083641,53.2166474 90.6051471,53.6220724 Z" id="Path-85" fill="#D90763"></path>
                            <path d="M83.2566299,143.403991 C88.1654451,143.10771 92.5524311,144.938224 94.4648821,147.018838 C95.2473214,147.870078 96.8139628,148.757228 97.2493914,149.656273 C97.8782446,150.954688 97.0619785,152.022349 95.7883137,150.898115 C93.6327419,148.995442 92.7232315,147.282107 88.3434477,146.866349 C83.9636638,146.450591 86.2410541,144.856543 81.6038428,145.082669 C76.9666314,145.308796 78.3478147,143.700271 83.2566299,143.403991 Z" id="Path-87" fill="#D90763" transform="translate(88.113715, 147.371766) rotate(-5.000000) translate(-88.113715, -147.371766) "></path>
                            <path d="M59.5912192,211.217373 C57.8339229,212.985812 53.1694405,220.575537 53.1694405,227.12743 C53.1694405,230.562179 52.0926423,234.018112 51.6026893,238.998667 C51.1127363,243.979222 49.8870792,264.128285 49.8870792,272.115018 C49.8870792,280.101751 45.7376178,295.117347 47.8123485,302.417242 C49.8870792,309.717137 48.4748202,314.087871 49.8870792,319.259916 C51.2993381,324.431961 48.1261212,332.011866 49.0066002,339.46383 C49.8870792,346.915795 51.9618098,358.866995 49.8870792,368.955204 C47.8123485,379.043413 47.8123485,383.363084 47.8123485,384.938209 C47.8123485,386.513334 57.440862,391.229311 65.3424988,391.506936 C73.2441356,391.784561 80.723841,389.978806 80.723841,389.099778 C81.7005079,383.493269 77.8658051,379.404508 79.9740537,376.298588 C82.0823023,373.192667 80.0351746,372.498394 80.723841,369.148798 C81.4125073,365.799202 82.2653833,359.509502 82.2653833,355.045619 C82.2653833,352.069696 82.5635707,343.747775 83.1599454,330.079854 L71.0991299,247.591433 C64.5987203,222.163101 60.7627501,210.038414 59.5912192,211.217373 Z" id="Path-92" fill="#07223D"></path>
                            <path d="M61.6715831,197.390837 C60.0401902,198.142767 57.9353216,199.670476 57.9353216,201.392059 C57.9353216,203.113642 59.1186938,208.786787 57.4806292,212.764161 C55.8425645,216.741535 55.3074046,222.501095 55.5749845,227.650133 C55.8425645,232.799171 56.4565901,240.541807 54.6173299,253.670283 C52.7780696,266.798759 55.5749845,282.493898 55.5749845,287.580089 C55.5749845,292.666279 55.5749845,315.505877 64.9087375,319.447899 C74.2424905,323.38992 135.080601,376.936325 136.429768,377.823491 C137.778934,378.710656 148.891672,370.948941 153.968931,363.206866 C157.353771,358.045483 159.572713,352.429949 160.625758,346.360264 C158.057366,346.46314 155.532725,346.054255 153.051836,345.133608 C149.330503,343.752638 149.330503,339.117606 146.961152,339.117606 C144.591802,339.117606 140.960038,336.747903 139.097681,334.465739 C137.235324,332.183575 133.964652,328.789228 129.174689,327.799935 C124.384725,326.810641 125.473635,321.999972 119.415624,319.447899 C113.357614,316.895825 109.875694,310.312508 105.090801,308.752534 C100.305907,307.192559 99.5014773,308.193637 99.5014773,305.932796 C99.5014773,303.671955 96.3676932,302.695007 95.5519968,300.76524 C94.7363003,298.835473 93.1263139,296.225041 90.9800408,296.225041 C88.8337677,296.225041 90.9800408,286.748476 90.9800408,282.623522 C90.9800408,278.498568 102.991771,251.297775 105.090801,246.047732 C107.18983,240.797688 116.743957,225.699043 117.613544,214.03627 C118.193268,206.261087 116.409214,198.821856 112.261381,191.718576 C79.6224442,194.998796 62.7591784,196.88955 61.6715831,197.390837 Z" id="Path-91" fill="#072C52"></path>
                            <path d="M141.251036,190.226924 C141.331234,190.181954 141.418122,190.150017 141.508422,190.132317 C141.977306,190.04041 142.432206,190.344536 142.52447,190.811602 L143.041833,193.430622 C143.110686,193.779176 142.957809,194.134107 142.656783,194.324579 L137.261835,197.738186 C137.162715,197.800903 137.051817,197.842867 136.935895,197.861522 C136.464137,197.937442 136.019917,197.618034 135.943702,197.148105 L135.453466,194.125391 C135.395627,193.768763 135.567186,193.414044 135.883214,193.236837 L141.251036,190.226924 Z" id="Path-94" fill="#07223D"></path>
                            <path d="M85.3458891,206.03158 C84.5046053,209.540962 82.4405778,216.475273 80.6593401,220.14935 C78.8781024,223.823426 79.3293268,224.766986 79.3293268,231.01979 C79.3293268,237.272595 79.0065843,245.446749 80.6593401,243.32956 C82.312096,241.212372 86.1871729,202.522199 85.3458891,206.03158 Z" id="Path-96" fill="#07223D"></path>
                            <path d="M90.397044,285.523667 C89.1711858,289.904488 85.2562148,301.484646 80.1877626,304.023815 C75.1193103,306.562984 68.5847085,309.933826 71.8520094,309.933826 C75.1193103,309.933826 85.3893884,305.450267 87.5817887,301.589507 C89.7741889,297.728747 91.6229022,281.142846 90.397044,285.523667 Z" id="Path-97" fill="#07223D"></path>
                            <path d="M59.6500868,186.687055 C58.1567088,186.687055 57.0846989,187.719556 57.6207039,189.16646 C58.1567088,190.613365 59.6379753,196.893665 60.5561971,198.20337 C61.4744189,199.513075 78.9288018,200.967452 94.7703816,198.983254 C110.611961,196.999056 113.211047,194.111243 113.211047,193.455829 C113.211047,192.800415 113.964214,184.689951 113.211047,184.689951 C112.45788,184.689951 109.64473,186.687055 107.050331,187.127271 C104.455932,187.567487 96.5330295,190.279205 79.6788707,190.279205 C62.824712,190.279205 61.1434647,186.687055 59.6500868,186.687055 Z" id="Path-90" fill="#011326"></path>
                        </g>
                    </g>
                </g>
            </g>
        </g>
    </g>
</svg>